<svg width="136" height="60" viewBox="0 0 136 60" fill="none" xmlns="http://www.w3.org/2000/svg">
<path d="M74.3186 14.06C75.3586 14.3533 76.5119 14.5 77.7786 14.5C78.3919 14.5 78.8519 14.48 79.1586 14.44C79.4653 14.4 79.6719 14.3333 79.7786 14.24C79.8853 14.1467 79.9386 14.02 79.9386 13.86C79.9386 13.6333 79.8519 13.4933 79.6786 13.44C79.5186 13.3867 79.1919 13.3133 78.6986 13.22L77.1186 12.92C76.1053 12.72 75.3719 12.4067 74.9186 11.98C74.4786 11.54 74.2586 10.8867 74.2586 10.02C74.2586 8.84667 74.6053 8.04667 75.2986 7.62C76.0053 7.19333 77.1253 6.98 78.6586 6.98C79.5786 6.98 80.3853 7.03333 81.0786 7.14C81.7853 7.23333 82.3719 7.35333 82.8386 7.5L82.7986 9.92L82.7386 9.98C81.6586 9.63333 80.4786 9.46 79.1986 9.46C78.5719 9.46 78.1319 9.50667 77.8786 9.6C77.6386 9.68 77.5186 9.84667 77.5186 10.1C77.5186 10.2333 77.5519 10.34 77.6186 10.42C77.6986 10.5 77.8719 10.58 78.1386 10.66C78.4053 10.7267 78.8253 10.8133 79.3986 10.92L80.8586 11.2C81.6719 11.3733 82.2719 11.66 82.6586 12.06C83.0453 12.46 83.2386 13.0933 83.2386 13.96C83.2386 14.72 83.0986 15.3267 82.8186 15.78C82.5386 16.22 82.0653 16.5333 81.3986 16.72C80.7453 16.9067 79.8386 17 78.6786 17C77.7986 17 76.9853 16.96 76.2386 16.88C75.5053 16.7867 74.8453 16.68 74.2586 16.56V14.1L74.3186 14.06ZM88.9544 3.46C88.9944 3.94 89.0144 4.34 89.0144 4.66C89.0144 4.84667 89.0077 5.04 88.9944 5.24C88.9944 5.42667 88.981 5.64 88.9544 5.88C88.6744 5.93333 88.401 5.97333 88.1344 6C87.8677 6.02667 87.601 6.04 87.3344 6.04C87.081 6.04 86.821 6.02667 86.5544 6C86.301 5.97333 86.041 5.93333 85.7744 5.88C85.7477 5.65333 85.7277 5.44667 85.7144 5.26C85.701 5.06 85.6944 4.86667 85.6944 4.68C85.6944 4.50667 85.701 4.32 85.7144 4.12C85.7277 3.92 85.7477 3.7 85.7744 3.46C86.041 3.39333 86.3077 3.35333 86.5744 3.34C86.8544 3.31333 87.1277 3.3 87.3944 3.3C87.6477 3.3 87.901 3.31333 88.1544 3.34C88.421 3.35333 88.6877 3.39333 88.9544 3.46ZM88.9544 16.82H85.7544V7.08H88.9544V16.82ZM92.3688 13.9V9.7H91.1688V7.1H92.6688L93.2688 4.72H95.5688V7.1H97.7488V9.7H95.5688V13.2C95.5688 13.5733 95.6154 13.8333 95.7088 13.98C95.8021 14.1133 96.0154 14.18 96.3488 14.18C96.5621 14.18 96.7888 14.1733 97.0288 14.16C97.2688 14.1333 97.5088 14.1067 97.7488 14.08L97.8088 14.12V16.72C97.1688 16.9067 96.3221 17 95.2688 17C94.2154 17 93.4688 16.76 93.0288 16.28C92.5888 15.8 92.3688 15.0067 92.3688 13.9ZM103.81 17C102.583 17 101.71 16.6733 101.19 16.02C100.67 15.3667 100.41 14.4333 100.41 13.22V7.08H103.61L103.63 12.44C103.63 13.04 103.737 13.4667 103.95 13.72C104.163 13.96 104.597 14.08 105.25 14.08C105.877 14.08 106.297 13.9733 106.51 13.76C106.737 13.5333 106.857 13.1533 106.87 12.62V7.08H110.07V16.82H107.03L106.87 15.72H106.81C106.637 16.1067 106.283 16.42 105.75 16.66C105.217 16.8867 104.57 17 103.81 17ZM113.026 14.06C114.066 14.3533 115.219 14.5 116.486 14.5C117.099 14.5 117.559 14.48 117.866 14.44C118.172 14.4 118.379 14.3333 118.486 14.24C118.592 14.1467 118.646 14.02 118.646 13.86C118.646 13.6333 118.559 13.4933 118.386 13.44C118.226 13.3867 117.899 13.3133 117.406 13.22L115.826 12.92C114.812 12.72 114.079 12.4067 113.626 11.98C113.186 11.54 112.966 10.8867 112.966 10.02C112.966 8.84667 113.312 8.04667 114.006 7.62C114.712 7.19333 115.832 6.98 117.366 6.98C118.286 6.98 119.092 7.03333 119.786 7.14C120.492 7.23333 121.079 7.35333 121.546 7.5L121.506 9.92L121.446 9.98C120.366 9.63333 119.186 9.46 117.906 9.46C117.279 9.46 116.839 9.50667 116.586 9.6C116.346 9.68 116.226 9.84667 116.226 10.1C116.226 10.2333 116.259 10.34 116.326 10.42C116.406 10.5 116.579 10.58 116.846 10.66C117.112 10.7267 117.532 10.8133 118.106 10.92L119.566 11.2C120.379 11.3733 120.979 11.66 121.366 12.06C121.752 12.46 121.946 13.0933 121.946 13.96C121.946 14.72 121.806 15.3267 121.526 15.78C121.246 16.22 120.772 16.5333 120.106 16.72C119.452 16.9067 118.546 17 117.386 17C116.506 17 115.692 16.96 114.946 16.88C114.212 16.7867 113.552 16.68 112.966 16.56V14.1L113.026 14.06ZM74.5718 30.424C74.5718 32.584 74.1318 34.224 73.2518 35.344C72.3718 36.448 70.8758 37 68.7638 37C67.5798 37 66.4758 36.96 65.4518 36.88C64.4438 36.784 63.5558 36.672 62.7878 36.544L62.7158 36.496V20.632H66.5558V26.896H66.6518C66.8758 26.32 67.2438 25.856 67.7558 25.504C68.2838 25.152 69.0278 24.976 69.9878 24.976C73.0438 24.976 74.5718 26.792 74.5718 30.424ZM66.5558 30.832V33.64C66.9398 33.704 67.3878 33.736 67.8998 33.736C68.6518 33.736 69.2358 33.672 69.6518 33.544C70.0838 33.4 70.3878 33.128 70.5638 32.728C70.7398 32.328 70.8278 31.752 70.8278 31C70.8278 30.056 70.6918 29.36 70.4198 28.912C70.1478 28.464 69.5878 28.24 68.7398 28.24C68.0998 28.24 67.5718 28.44 67.1558 28.84C66.7558 29.224 66.5558 29.888 66.5558 30.832ZM81.6542 37C80.1822 37 79.1342 36.608 78.5102 35.824C77.8862 35.04 77.5742 33.92 77.5742 32.464V25.096H81.4142L81.4382 31.528C81.4382 32.248 81.5662 32.76 81.8222 33.064C82.0782 33.352 82.5982 33.496 83.3822 33.496C84.1342 33.496 84.6382 33.368 84.8942 33.112C85.1662 32.84 85.3102 32.384 85.3262 31.744V25.096H89.1662V36.784H85.5182L85.3262 35.464H85.2542C85.0462 35.928 84.6222 36.304 83.9822 36.592C83.3422 36.864 82.5662 37 81.6542 37ZM97.0808 36.784H93.2408V20.632H97.0808V30.04H97.1288L100.153 25.096H104.377V25.192L100.825 30.712V30.808L104.953 36.784H100.537L97.1528 31.384L97.0808 31.36V36.784ZM111.771 24.976C113.307 24.976 114.547 25.136 115.491 25.456C116.435 25.776 117.123 26.368 117.555 27.232C118.003 28.08 118.227 29.312 118.227 30.928V36.784H114.747L114.627 35.68H114.555C114.251 36.08 113.779 36.4 113.139 36.64C112.499 36.88 111.667 37 110.643 37C107.875 37 106.491 35.704 106.491 33.112C106.491 32.008 106.851 31.144 107.571 30.52C108.307 29.88 109.459 29.56 111.027 29.56H114.579C114.467 28.888 114.179 28.44 113.715 28.216C113.251 27.976 112.459 27.856 111.339 27.856C110.635 27.856 109.939 27.912 109.251 28.024C108.579 28.12 107.987 28.232 107.475 28.36L107.403 28.312L107.427 25.528C107.747 25.432 108.155 25.344 108.651 25.264C109.147 25.168 109.667 25.096 110.211 25.048C110.771 25 111.291 24.976 111.771 24.976ZM111.627 34.168C112.619 34.168 113.363 34.048 113.859 33.808C114.355 33.552 114.611 33.152 114.627 32.608V32.008H111.915C111.211 32.008 110.715 32.112 110.427 32.32C110.155 32.512 110.019 32.776 110.019 33.112C110.019 33.512 110.163 33.792 110.451 33.952C110.739 34.096 111.131 34.168 111.627 34.168ZM125.778 36.784H121.938V25.096H125.586L125.778 27.232H125.85C126.074 26.512 126.474 25.96 127.05 25.576C127.626 25.176 128.426 24.976 129.45 24.976C130.842 24.976 131.866 25.368 132.522 26.152C133.194 26.936 133.53 28.296 133.53 30.232V36.784H129.69L129.666 30.976C129.666 30.08 129.53 29.44 129.258 29.056C128.986 28.672 128.474 28.48 127.722 28.48C127.018 28.48 126.522 28.656 126.234 29.008C125.946 29.344 125.794 29.928 125.778 30.76V36.784ZM86.9094 46.98C87.896 46.98 88.676 47.3067 89.2494 47.96C89.836 48.6133 90.1294 49.7467 90.1294 51.36V56.82H86.9294L86.9094 51.76C86.9094 51.1067 86.8094 50.6333 86.6094 50.34C86.4227 50.0467 86.0494 49.9 85.4894 49.9C84.9294 49.9 84.5494 50.0467 84.3494 50.34C84.1627 50.6333 84.0694 51.1067 84.0694 51.76V56.82H80.8694L80.8494 51.76C80.8494 51.1067 80.7494 50.6333 80.5494 50.34C80.3627 50.0467 79.9894 49.9 79.4294 49.9C78.8694 49.9 78.4894 50.0467 78.2894 50.34C78.1027 50.6333 78.0094 51.1067 78.0094 51.76V56.82H74.8094V47.08H77.8494L78.0094 48.86H78.0694C78.2427 48.2733 78.5427 47.8133 78.9694 47.48C79.4094 47.1467 80.0294 46.98 80.8294 46.98C81.6294 46.98 82.256 47.1467 82.7094 47.48C83.176 47.8133 83.476 48.2733 83.6094 48.86H83.6694C83.8427 48.26 84.176 47.8 84.6694 47.48C85.176 47.1467 85.9227 46.98 86.9094 46.98ZM97.0289 46.98C98.3089 46.98 99.3422 47.1133 100.129 47.38C100.916 47.6467 101.489 48.14 101.849 48.86C102.222 49.5667 102.409 50.5933 102.409 51.94V56.82H99.5089L99.4089 55.9H99.3489C99.0956 56.2333 98.7022 56.5 98.1689 56.7C97.6356 56.9 96.9422 57 96.0889 57C93.7822 57 92.6289 55.92 92.6289 53.76C92.6289 52.84 92.9289 52.12 93.5289 51.6C94.1422 51.0667 95.1022 50.8 96.4089 50.8H99.3689C99.2756 50.24 99.0356 49.8667 98.6489 49.68C98.2622 49.48 97.6022 49.38 96.6689 49.38C96.0822 49.38 95.5022 49.4267 94.9289 49.52C94.3689 49.6 93.8756 49.6933 93.4489 49.8L93.3889 49.76L93.4089 47.44C93.6756 47.36 94.0156 47.2867 94.4289 47.22C94.8422 47.14 95.2756 47.08 95.7289 47.04C96.1956 47 96.6289 46.98 97.0289 46.98ZM96.9089 54.64C97.7356 54.64 98.3556 54.54 98.7689 54.34C99.1822 54.1267 99.3956 53.7933 99.4089 53.34V52.84H97.1489C96.5622 52.84 96.1489 52.9267 95.9089 53.1C95.6822 53.26 95.5689 53.48 95.5689 53.76C95.5689 54.0933 95.6889 54.3267 95.9289 54.46C96.1689 54.58 96.4956 54.64 96.9089 54.64ZM108.521 43.46C108.561 43.94 108.581 44.34 108.581 44.66C108.581 44.8467 108.574 45.04 108.561 45.24C108.561 45.4267 108.547 45.64 108.521 45.88C108.241 45.9333 107.967 45.9733 107.701 46C107.434 46.0267 107.167 46.04 106.901 46.04C106.647 46.04 106.387 46.0267 106.121 46C105.867 45.9733 105.607 45.9333 105.341 45.88C105.314 45.6533 105.294 45.4467 105.281 45.26C105.267 45.06 105.261 44.8667 105.261 44.68C105.261 44.5067 105.267 44.32 105.281 44.12C105.294 43.92 105.314 43.7 105.341 43.46C105.607 43.3933 105.874 43.3533 106.141 43.34C106.421 43.3133 106.694 43.3 106.961 43.3C107.214 43.3 107.467 43.3133 107.721 43.34C107.987 43.3533 108.254 43.3933 108.521 43.46ZM108.521 56.82H105.321V47.08H108.521V56.82ZM114.935 56.82H111.735V47.08H114.775L114.935 48.86H114.995C115.182 48.26 115.515 47.8 115.995 47.48C116.475 47.1467 117.142 46.98 117.995 46.98C119.155 46.98 120.008 47.3067 120.555 47.96C121.115 48.6133 121.395 49.7467 121.395 51.36V56.82H118.195L118.175 51.98C118.175 51.2333 118.062 50.7 117.835 50.38C117.608 50.06 117.182 49.9 116.555 49.9C115.968 49.9 115.555 50.0467 115.315 50.34C115.075 50.62 114.948 51.1067 114.935 51.8V56.82Z" fill="white"/>
<path d="M43.7437 46.2128L51.5702 22.7345C53.5475 16.8027 54.8985 12.75 54.9945 9.948C55.027 9.00415 53.9612 8.69062 53.2932 9.35842L17.1463 45.5055C16.5629 46.0888 16.7017 47.0715 17.4956 47.2963C17.5736 47.3183 17.6522 47.339 17.7314 47.3583C18.9813 47.6643 20.6144 47.4425 23.8805 46.9993L24.059 46.975C24.9797 46.85 25.4402 46.7875 25.8822 46.8143C26.6845 46.8628 27.4595 47.124 28.1275 47.5715C28.4952 47.8178 28.8237 48.1465 29.4807 48.8033L30.109 49.4315C33.8847 53.207 35.7725 55.0948 37.7752 54.9965C38.3272 54.9693 38.8697 54.8413 39.3757 54.6188C41.211 53.811 42.0552 51.2783 43.7437 46.2128Z" fill="white"/>
<path d="M37.265 8.42985L13.9369 16.2056C8.73237 17.9404 6.13007 18.8078 5.34019 20.7161C5.15454 21.1646 5.04229 21.64 5.00777 22.1242C4.86082 24.1843 6.80044 26.1238 10.6797 30.003L11.3863 30.7095C12.023 31.3463 12.3414 31.6645 12.582 32.019C13.0567 32.7178 13.3261 33.5358 13.3598 34.38C13.3769 34.808 13.3101 35.2533 13.1764 36.1438C12.6872 39.4033 12.4426 41.0328 12.7307 42.287C12.7408 42.3305 12.7512 42.3742 12.7621 42.4175C12.9657 43.23 13.9638 43.3848 14.556 42.7925L50.6417 6.70678C51.3095 6.03898 50.996 4.97325 50.0522 5.0056C47.25 5.10165 43.197 6.45255 37.265 8.42985Z" fill="white"/>
</svg>
